<?xml version="1.0" encoding="utf-8"?>
<!-- Generator: Adobe Illustrator 16.0.0, SVG Export Plug-In . SVG Version: 6.00 Build 0)  -->
<!DOCTYPE svg PUBLIC "-//W3C//DTD SVG 1.1//EN" "http://www.w3.org/Graphics/SVG/1.1/DTD/svg11.dtd">
<svg version="1.1" id="Layer_1" xmlns="http://www.w3.org/2000/svg" xmlns:xlink="http://www.w3.org/1999/xlink" x="0px" y="0px"
	 width="100px" height="100px" viewBox="0 0 100 100" enable-background="new 0 0 100 100" xml:space="preserve">
<g>
	<path fill="#ABAB81" d="M18.131,74.906c-1.687,0-3.132-1.211-3.132-2.644V59.629c0-8.284,5.839-16.853,12.021-22.998
		c2.202-2.142,3.723-3.711,3.723-4.07c0-0.356-0.507-1-4.821-2.429c-2.879-0.929-3.554-1.499-3.554-2.856
		c0-1.427,1.438-2.285,3.465-2.285c1.87,0,3.556,0.499,5.589,1.214c3.725,1.286,7.786,3.5,10.239,6.143
		c2.708,2.785,4.152,5.212,4.743,9.286c0.341,2.067,0.592,4.923,0.592,8.989v2.002c0,1.217,0,1.998,0.253,2.217
		c0.085,0.143,0.675,0.143,1.947,0.143h1.013c1.531,0,2.709,0.998,2.709,2.284s-1.178,2.285-2.709,2.285h-1.013
		c-1.696,0-1.696,0.146-1.862,0.208c-0.166,0.154-0.338,0.438-0.338,1.435v10.853c0,1.425-1.439,2.643-3.133,2.643
		c-1.69,0-3.132-1.218-3.132-2.643V61.196c0-1.497,0-1.643-1.689-1.643H22.368c-0.763,0-1.105,0.431-1.105,0.998v11.711
		C21.262,73.695,19.825,74.906,18.131,74.906z M40.478,54.775c0.167-0.221,0.251-1.008,0.251-2.287c0-1.074,0-2.503-0.084-4.359
		c-0.25-5.855-0.341-7.212-1.52-9.498c-0.765-1.43-2.286-3.143-2.968-3.143c-0.422,0-0.673,0.359-4.402,4.214
		c-2.958,2.999-7.278,7.998-8.714,11.712c-0.424,1.074-0.933,2.217-0.933,3.076c0,0.209,0.172,0.494,0.509,0.494h15.743
		C40.223,54.984,40.305,54.91,40.478,54.775z"/>
	<path fill="#ABAB81" d="M54.096,74.691c-1.703,0-3.139-1.218-3.139-2.643V31.776c0-1.286,0-1.644-0.254-1.928
		c-0.333-0.287-0.84-0.359-2.194-0.359H46.64c-1.52,0-2.71-1-2.71-2.285c0-1.284,1.191-2.285,2.71-2.285h26.066
		c3.476,0,4.747,0,6.434,1.357c1.018,0.786,1.354,2,1.354,3.356c0,2.356-1.178,3.642-3.299,5.927l-3.801,4.071
		c-0.513,0.57-0.768,0.929-0.768,1.07c0,0.43,0.419,0.358,1.609,0.714c2.109,0.571,3.385,1.143,4.998,2.142
		c4.391,2.782,5.236,5.998,5.236,11.066v17.426c0,1.425-1.437,2.643-3.127,2.643c-1.688,0-3.135-1.218-3.135-2.643v-16.42
		c0-4.146,0-5.357-2.454-7.578c-1.613-1.425-3.049-1.92-7.021-2.418c-1.183-0.151-2.286-0.361-2.627-0.503
		c-0.763-0.354-1.439-0.924-1.439-1.856c0-1.068,0.086-1.64,2.626-4.357l6.435-6.855c0.673-0.787,1.018-1.072,1.018-1.572
		c0-0.785-0.678-1.001-2.967-1.001H59.426c-0.685,0-1.44,0-1.776,0.287c-0.427,0.356-0.427,0.714-0.427,2v40.273
		C57.223,73.474,55.782,74.691,54.096,74.691z"/>
	<path fill="#ABAB81" d="M14.754,80.581c-1.252,0-3.223-1.679-4.355-2.843c-1.79-1.811-2.924-4.138-3.521-6.85
		c-0.12-0.579-0.239-1.356-0.239-4.774V35.112c0-4.004,0.18-4.522,0.654-5.75c0.599-1.614,1.674-3.682,2.985-5.036
		c0.78-0.841,2.924-2.584,4.296-2.584c0.956,0,1.849,0.839,1.849,1.81c0,0.837-0.296,1.549-1.132,2.128
		c-0.359,0.259-0.956,0.713-1.254,0.972c-1.608,1.357-2.684,3.228-2.979,5.49c-0.064,0.516-0.064,1.097-0.064,2.905v31.066
		c0,2.262,0.117,3.229,0.181,3.743c0.238,2.454,1.727,4.844,3.578,6.268c1.252,0.965,1.612,1.674,1.612,2.513
		C16.367,79.809,15.709,80.581,14.754,80.581z"/>
	<text transform="matrix(0.9239 0 0 1 82.001 64.8848)" fill="#ABAB81" font-family="'Aerolite'" font-size="64.8765">]</text>
</g>
</svg>
